<svg width="247" height="319" viewBox="0 0 247 319" fill="none" xmlns="http://www.w3.org/2000/svg">
<path d="M77.4946 0C39.6661 0 9 31.2744 9 69.8533H145.989C145.989 31.2744 115.323 0 77.4946 0Z" fill="#6E8DFF"/>
<path d="M145.5 18C102.146 18 67 53.3695 67 97H224C224 53.3695 188.854 18 145.5 18Z" fill="#6C8BFF"/>
<path d="M177.5 249C139.116 249 108 280.34 108 319H247C247 280.34 215.884 249 177.5 249Z" fill="#567AFF"/>
<path d="M82.5 254C68.4167 254 57 265.193 57 279H108C108 265.193 96.5833 254 82.5 254Z" fill="#567AFF"/>
<path d="M57.7851 75C25.8713 75 0 101.648 0 134.52H115.57C115.57 101.648 89.6989 75 57.7851 75Z" fill="#567AFF"/>
</svg>
