<svg aria-hidden="true" style="position: absolute; width: 0; height: 0; overflow: hidden;" version="1.1"
   xmlns="http://www.w3.org/2000/svg" xmlns:xlink="http://www.w3.org/1999/xlink">
   <defs>
      <symbol id="apple-watch-partner" viewBox="0 0 150 32">
         <path
            d="M19.473 8.346c-2.637-0.189-4.872 1.43-6.118 1.43-1.267 0-3.218-1.389-5.286-1.353-2.717 0.041-5.222 1.536-6.623 3.899-2.822 4.758-0.719 11.805 2.029 15.663 1.344 1.888 2.948 4.012 5.053 3.935 2.029-0.078 2.794-1.276 5.245-1.276 2.449 0 3.141 1.276 5.284 1.235 2.182-0.038 3.566-1.923 4.899-3.821 1.545-2.189 2.181-4.306 2.218-4.421-0.049-0.017-4.255-1.587-4.296-6.29-0.038-3.931 3.305-5.823 3.459-5.914-1.9-2.714-4.831-3.013-5.864-3.087zM124.812 23.702v0.417c0 4.105-3.092 7.779-9.299 7.779-6.19 0-9.869-3.773-9.869-10.367v-2.755c0-6.525 3.697-10.417 9.884-10.417 5.811 0 9.284 3.558 9.284 7.997v0.233h-4.659c0-2.253-1.478-4.256-4.59-4.256-3.318 0-4.987 2.153-4.987 6.442v2.755c0 4.339 1.652 6.362 5.020 6.362 3.354 0 4.557-1.838 4.557-4.191h4.659zM40.076 25.004h0.068l4.179-16.274h4.933l4.195 16.275h0.069l3.886-16.275h5.192l-6.515 22.787h-4.936l-4.314-15.576h-0.087l-4.316 15.576h-4.899l-6.533-22.788h5.193l3.885 16.275zM134.851 17.875h9.592v-9.146h4.883v22.784h-4.883v-9.715h-9.592v9.715h-4.864v-22.785h4.864v9.147zM102.497 8.73v3.939h-6.996v18.848h-4.849v-18.849h-6.979v-3.937h18.824zM76.211 8.73l7.547 22.785h-5.21l-1.673-5.742h-7.423l-1.7 5.742h-4.864l7.565-22.785h5.757zM75.858 22.268l-2.637-9.048h-0.051l-2.679 9.048h5.367zM17.738 5.92c-1.126 1.254-2.899 2.208-4.64 2.077-0.247-1.783 0.663-3.644 1.697-4.808 1.157-1.311 3.105-2.294 4.717-2.354 0.207 1.818-0.548 3.649-1.667 4.96l-0.051 0.063-0.055 0.061z">
         </path>
      </symbol>
      <symbol id="icon-arrow-left" viewBox="0 0 45 32">
         <path fill="none" stroke="#a8b4e5" style="stroke: var(--color2, #a8b4e5)" stroke-linejoin="round"
            stroke-linecap="round" stroke-miterlimit="4" stroke-width="5.0526"
            d="M42.105 16h-38.737M3.368 16l13.155 12.632M3.368 16l13.155-12.632"></path>
      </symbol>
      <symbol id="icon-arrow-right" viewBox="0 0 45 32">
         <path fill="none" stroke="#a8b4e5" style="stroke: var(--color2, #a8b4e5)" stroke-linejoin="round"
            stroke-linecap="round" stroke-miterlimit="4" stroke-width="5.0526"
            d="M3.368 16h38.737M42.105 16l-13.155-12.632M42.105 16l-13.155 12.632"></path>
      </symbol>
      <symbol id="icon-atlassian-partner" viewBox="0 0 150 32">
         <path
            d="M105.294 20.992c-2.168-0.543-2.168-0.564-2.168-1.719 0-0.778 0.079-1.149 1.866-1.149 1.226 0 3.031 0.205 4.192 0.401 0.028 0.005 0.061 0.008 0.094 0.008 0.135 0 0.259-0.045 0.359-0.121l-0.001 0.001c0.127-0.092 0.214-0.233 0.233-0.394l0-0.003 0.332-2.586c0.002-0.016 0.002-0.035 0.002-0.054 0-0.284-0.199-0.521-0.464-0.58l-0.004-0.001c-1.353-0.301-3.218-0.498-4.756-0.498-5.386 0-6.482 1.97-6.482 4.928 0 3.252 0.618 4.348 4.737 5.321 2.714 0.634 2.714 1.103 2.714 1.885 0 1.024-0.092 1.38-1.865 1.38-1.431 0-3.086-0.215-4.541-0.593-0.047-0.014-0.102-0.021-0.158-0.021-0.285 0-0.523 0.202-0.579 0.471l-0.001 0.004-0.445 2.469c-0.006 0.030-0.009 0.065-0.009 0.101 0 0.256 0.169 0.473 0.402 0.545l0.004 0.001c1.59 0.499 3.871 0.838 5.545 0.838 5.208 0 6.272-2.129 6.272-5.299 0-3.507-0.64-4.165-5.284-5.358l0.006 0.023zM91.788 20.992c-2.168-0.543-2.168-0.564-2.168-1.719 0-0.778 0.079-1.149 1.865-1.149 1.225 0 3.031 0.205 4.193 0.401 0.028 0.005 0.061 0.008 0.094 0.008 0.135 0 0.259-0.045 0.359-0.121l-0.001 0.001c0.127-0.092 0.214-0.233 0.233-0.394l0-0.003 0.332-2.586c0.003-0.021 0.004-0.044 0.004-0.069 0-0.277-0.195-0.509-0.456-0.566l-0.004-0.001c-1.329-0.301-3.194-0.498-4.732-0.498-5.372 0-6.482 1.97-6.482 4.928 0 3.252 0.63 4.348 4.748 5.321 2.714 0.634 2.714 1.103 2.714 1.885 0 1.024-0.093 1.38-1.865 1.38-1.434 0-3.090-0.215-4.547-0.593-0.047-0.014-0.102-0.021-0.158-0.021-0.285 0-0.523 0.202-0.579 0.471l-0.001 0.004-0.466 2.456c-0.005 0.029-0.008 0.062-0.008 0.096 0 0.26 0.171 0.479 0.407 0.552l0.004 0.001c1.586 0.499 3.866 0.838 5.542 0.838 5.199 0 6.272-2.129 6.272-5.298 0-3.508-0.649-4.165-5.293-5.358l-0.008 0.022v0.013zM43.981 9.101c-0.079-0.236-0.299-0.403-0.557-0.403-0.003 0-0.005 0-0.008 0h-5.522c-0.256 0-0.49 0.161-0.567 0.399l-6.968 21.44c-0.016 0.050-0.025 0.107-0.025 0.167 0 0.129 0.043 0.248 0.116 0.343l-0.001-0.001c0.111 0.143 0.283 0.234 0.476 0.234 0.001 0 0.001 0 0.002 0h3.8c0.001 0 0.002 0 0.004 0 0.261 0 0.483-0.169 0.563-0.403l0.001-0.004 4.8-15.78s0.128-0.397 0.559-0.397c0.443 0 0.559 0.408 0.559 0.408l2.227 7.482h-2.985c-0.256 0-0.489 0.174-0.559 0.419l-0.863 2.966c-0.011 0.044-0.017 0.094-0.017 0.145 0 0.132 0.041 0.255 0.112 0.356l-0.001-0.002c0.117 0.138 0.291 0.225 0.486 0.225 0.002 0 0.003 0 0.005-0h5.094l1.34 4.18c0.079 0.235 0.297 0.401 0.554 0.401 0.002 0 0.004 0 0.005-0h3.801c0.186 0 0.367-0.090 0.479-0.237 0.075-0.094 0.12-0.214 0.12-0.345 0-0.061-0.010-0.119-0.028-0.174l0.001 0.004-6.976-21.462-0.023 0.036-0.006 0.003zM116.608 14.641h-3.497c-0.326 0-0.589 0.256-0.589 0.573v15.532c0.005 0.321 0.267 0.58 0.589 0.58 0.001 0 0.002 0 0.003 0h3.497c0.326 0 0.591-0.257 0.591-0.579v-15.526c0-0.317-0.256-0.57-0.582-0.57l-0.013-0.009 0.003-0.001zM67.016 8.279h-3.497c-0.326 0-0.589 0.256-0.589 0.573v21.893c0.005 0.321 0.267 0.58 0.589 0.58 0.001 0 0.002 0 0.003 0h3.497c0.326 0 0.59-0.257 0.59-0.579v-21.888c0-0.317-0.256-0.57-0.582-0.57l-0.010-0.009v-0.001zM145.637 14.307c-1.848 0-4.372 0.621-6.505 1.594l-0.257-0.837c-0.073-0.241-0.294-0.414-0.555-0.414-0.004 0-0.008 0-0.012 0h-2.586c-0.326 0-0.595 0.256-0.595 0.573v15.532c0 0.316 0.256 0.576 0.582 0.576h3.498c0.326 0 0.594-0.256 0.594-0.576v-10.755c1.26-0.622 3.031-1.267 4.084-1.267 0.787 0 1.079 0.288 1.079 1.052v10.957c0 0.323 0.269 0.579 0.595 0.579h3.497c0.326 0 0.59-0.256 0.59-0.577v-11.402c0-3.334-1.353-5.027-4.013-5.027h-0.003l0.005-0.008zM13.448 23.54c-0.111-0.115-0.267-0.187-0.44-0.187-0.006 0-0.011 0-0.017 0l0.001-0c-0.219 0.004-0.411 0.117-0.525 0.287l-0.001 0.002c-1.632 2.423-2.472 4.71-2.588 7.007-0 0.004-0 0.008-0 0.012 0 0.176 0.069 0.335 0.181 0.453l-0-0c0.116 0.136 0.292 0.205 0.466 0.205h3.876c0.004 0 0.009 0 0.013 0 0.326 0 0.594-0.247 0.626-0.564l0-0.003c0.093-1.11 0.444-2.218 1.097-3.373 0.066-0.118 0.104-0.26 0.104-0.41 0-0.202-0.070-0.389-0.188-0.535l0.001 0.002c-0.641-0.815-1.426-1.676-2.592-2.86l-0.004-0.023-0.013-0.013zM78.354 25.192v2.001c-0.835 0.464-1.829 0.74-2.888 0.747h-0.002c-1.084 0-1.422-0.316-1.422-1.381 0-1.019 0.209-1.34 1.491-1.34h2.821v-0.026zM128.040 25.192v2.001c-0.835 0.461-1.829 0.737-2.887 0.747l-0.003 0c-1.084 0-1.422-0.316-1.422-1.381 0-1.019 0.209-1.34 1.491-1.34h2.821v-0.026zM60.553 28.006c-0.025-0.167-0.12-0.308-0.254-0.394l-0.002-0.001c-0.092-0.061-0.205-0.097-0.326-0.097-0.051 0-0.1 0.006-0.148 0.018l0.004-0.001c-0.628 0.15-1.212 0.23-1.678 0.23-0.863 0-1.26-0.361-1.26-1.178v-8.229h3.392c0.002 0 0.004 0 0.007 0 0.32 0 0.58-0.257 0.586-0.576v-2.573c-0.006-0.32-0.268-0.577-0.589-0.577-0.002 0-0.004 0-0.005 0h-3.38v-3.949c-0.002-0.175-0.083-0.331-0.209-0.434l-0.001-0.001c-0.104-0.088-0.239-0.141-0.387-0.141-0.028 0-0.056 0.002-0.084 0.006l0.003-0-3.497 0.475c-0.294 0.038-0.512 0.28-0.512 0.566v3.487h-1.91c-0.326 0-0.591 0.257-0.591 0.575v2.58c0.012 0.323 0.277 0.58 0.601 0.58 0.002 0 0.003 0 0.004-0h1.903v8.75c0 3.008 1.626 4.527 4.833 4.527 0.909 0 2.461-0.204 3.474-0.543 0.232-0.077 0.396-0.292 0.396-0.545 0-0.031-0.002-0.062-0.007-0.092l0 0.003-0.379-2.458 0.013-0.017 0.001 0.008zM76.010 14.316c-1.773 0-3.927 0.271-5.491 0.691-0.259 0.061-0.449 0.29-0.449 0.563 0 0.029 0.002 0.058 0.006 0.085l-0-0.003 0.403 2.468c0.030 0.157 0.119 0.29 0.244 0.375l0.002 0.001c0.131 0.090 0.293 0.113 0.452 0.090 1.453-0.27 2.954-0.429 4.224-0.429 2.519 0 2.925 0.521 2.925 2.173v1.449h-3.731c-3.576 0-5.106 1.426-5.106 4.8 0 3.214 1.679 5.048 4.594 5.048 0.004 0 0.008 0 0.012 0 1.767 0 3.422-0.479 4.842-1.315l-0.045 0.024 0.152 0.527c0.074 0.244 0.297 0.419 0.561 0.419 0.004 0 0.007-0 0.011-0h2.84c0.326 0 0.589-0.261 0.589-0.577v-10.324c0-4.436-1.9-6.089-7.017-6.089l-0.022 0.010 0.005 0.013zM125.687 14.316c-1.772 0-3.917 0.271-5.478 0.691-0.251 0.064-0.434 0.288-0.434 0.554 0 0.032 0.003 0.064 0.008 0.094l-0-0.003 0.41 2.468c0.029 0.157 0.118 0.289 0.241 0.375l0.002 0.001c0.133 0.090 0.297 0.113 0.456 0.090 1.445-0.27 2.938-0.429 4.22-0.429 2.518 0 2.915 0.521 2.915 2.173v1.449h-3.731c-3.59 0-5.12 1.426-5.12 4.8 0 3.214 1.676 5.048 4.593 5.048 0.004 0 0.008 0 0.013 0 1.765 0 3.418-0.479 4.836-1.315l-0.045 0.024 0.151 0.527c0.075 0.244 0.298 0.419 0.562 0.419 0.003 0 0.006-0 0.010-0h2.822c0.002 0 0.003 0 0.005 0 0.321 0 0.582-0.257 0.589-0.577v-10.325c0-4.436-1.901-6.089-7.018-6.089l0.006 0.010-0.009 0.013zM29.169 8.384c-0.108-0.081-0.243-0.129-0.39-0.129-0.083 0-0.162 0.015-0.235 0.043l0.005-0.002c-1.098 0.42-2.463 0.83-3.861 1.151l-0.219 0.042c-0.256 0.068-0.485 0.25-0.559 0.476-0.933 2.49-3.334 4.867-5.829 7.334-0.093 0.091-0.233 0.227-0.466 0.227-0.001 0-0.003 0-0.005 0-0.184 0-0.349-0.081-0.462-0.209l-0.001-0.001c-2.518-2.482-4.896-4.837-5.828-7.325-0.104-0.235-0.307-0.41-0.555-0.475l-0.006-0.001c-1.623-0.369-2.987-0.781-4.311-1.275l0.232 0.076c-0.070-0.022-0.15-0.034-0.233-0.035h-0c-0.147 0-0.282 0.048-0.392 0.129l0.002-0.001c-0.152 0.11-0.25 0.286-0.25 0.485 0 0.021 0.001 0.041 0.003 0.061l-0-0.003c0.21 2.067 1.062 4.086 2.577 6.203 1.434 1.993 3.287 3.837 5.094 5.619 3.311 3.283 6.447 6.385 6.725 9.984 0.030 0.323 0.3 0.573 0.628 0.573 0.002 0 0.004 0 0.005-0h3.893c0.174 0 0.346-0.068 0.466-0.192 0.109-0.109 0.176-0.259 0.176-0.426 0-0.012-0-0.025-0.001-0.037l0 0.002c-0.124-2.403-1.056-4.81-2.852-7.36-0.421-0.6-0.813-1.109-1.224-1.601l0.031 0.038c-0.061-0.075-0.099-0.172-0.099-0.277 0-0.123 0.051-0.234 0.132-0.314l0-0 0.397-0.389c1.804-1.777 3.661-3.622 5.094-5.614 1.516-2.112 2.355-4.122 2.57-6.186 0.002-0.017 0.003-0.037 0.003-0.058 0-0.204-0.097-0.385-0.248-0.499l-0.002-0.001 0.012-0.018-0.018-0.018zM17.628 10.24c1.22 0 1.929-0.076 2.176-0.076 0.28 0 0.582 0.227 0.582 0.566 0 0.091-0.023 0.159-0.046 0.227-0.164 0.417-0.909 1.929-2.285 3.226-0.115 0.107-0.269 0.173-0.439 0.173-0.001 0-0.002 0-0.004 0h0c-0.004 0-0.008 0-0.013 0-0.173 0-0.33-0.065-0.449-0.172l0.001 0.001c-1.375-1.298-2.112-2.808-2.272-3.231-0.023-0.068-0.047-0.136-0.047-0.238 0-0.328 0.288-0.577 0.589-0.577 0.248 0 0.955 0.068 2.176 0.068h0.005l0.024 0.023v0.012zM116.605 8.285h-3.488c-0.005-0-0.011-0-0.017-0-0.315 0-0.57 0.252-0.576 0.565v2.989c0 0.317 0.266 0.576 0.593 0.576h3.497c0.005 0 0.010 0 0.015 0 0.315 0 0.571-0.253 0.576-0.567v-3.014c-0.005-0.317-0.263-0.572-0.581-0.572-0.004 0-0.007 0-0.011 0h0.001l-0.009 0.027v-0.006zM34.66 1.155c-0.15-0.193-0.383-0.316-0.644-0.316-0.003 0-0.006 0-0.009 0h0c-0.005-0-0.011-0-0.018-0-0.13 0-0.253 0.033-0.36 0.092l0.004-0.002c-4.78 2.537-10.313 3.878-16.012 3.881-5.696 0-11.231-1.344-16.006-3.882-0.101-0.057-0.222-0.090-0.35-0.090-0.008 0-0.016 0-0.023 0l0.001-0c-0.257-0.001-0.502 0.11-0.654 0.315-0.097 0.125-0.156 0.285-0.156 0.458 0 0.248 0.12 0.467 0.305 0.604l0.002 0.001c2.249 1.641 4.844 2.999 7.629 3.946l0.204 0.060c2.701 0.917 5.811 1.447 9.046 1.45h0.002c3.094 0 6.136-0.499 9.047-1.449 2.992-1.008 5.589-2.367 7.923-4.066l-0.083 0.058c0.385-0.294 0.374-0.794 0.152-1.087v0.026h-0.001z">
         </path>
      </symbol>
      <symbol id="icon-audi-partner" viewBox="0 0 129 32">
         <path
            d="M116.792 19.462c0-2.542-1.070-5.484-4.399-9.586l-8.030-9.876h-11.18l6.365 6.929c1.073 1.155 2.439 2.194 2.439 2.194-1.548-0.865-3.508-1.212-5.056-1.212-3.686 0-7.433 0.75-10.763 2.541-3.567 1.905-5.95 5.080-5.95 9.298 0 3.233 1.49 5.716 3.392 7.622 4.281 4.16 12.073 4.563 14.929 4.563 4.223 0 10.825-0.925 14.57-4.215 2.202-1.964 3.689-4.679 3.689-8.256l-0.004-0.001zM129.103 8.546h-9.694v22.637h9.694v-22.637zM49.411 31.183l-21.411-31.183h-12.013l3.32 3.81-18.844 27.373h10.825l3.229-5.139h20.415l3.296 5.137 11.185 0.002zM77.779 21.713v-13.166h-9.395v10.106c0 2.888-0.121 3.694-0.298 4.445-0.654 2.079-2.915 3.001-5.237 3.001-3.211 0-4.698-1.213-5.291-3.118-0.181-0.634-0.238-1.325-0.298-2.019-0.060-0.75 0-1.559 0-2.425v-9.99h-9.514v13.223c0 2.947 1.011 5.14 2.676 6.643 2.855 2.713 7.672 3.523 12.134 3.523 5.412 0 9.578-0.751 12.55-3.582 1.548-1.444 2.678-3.349 2.678-6.641h-0.003zM107.517 19.748c0 2.367-1.607 4.158-3.628 5.14-1.665 0.866-3.628 1.097-5.354 1.097-1.725 0-3.746-0.344-5.411-1.154-2.023-0.982-3.569-2.887-3.569-4.968 0-2.482 1.962-4.445 4.281-5.428 1.427-0.636 3.153-0.866 4.52-0.866 1.309 0 3.213 0.173 4.698 0.751 2.677 1.098 4.461 3.176 4.461 5.429zM31.159 19.958h-12.939l6.447-10.329 6.493 10.33z">
         </path>
      </symbol>
      <symbol id="button-arrow" viewBox="0 0 7 8">
         <path
            d="M6 2.73354C6.66667 3.11844 6.66667 4.08069 6 4.46559L1.5 7.06367C0.833333 7.44857 0 6.96744 0 6.19764V1.00149C0 0.231691 0.833333 -0.249434 1.5 0.135467L6 2.73354Z">
         </path>
      </symbol>
      <symbol id="bitbucket-partner" viewBox="0 0 129 32">

         <path
            d="M16.477 25.6h-0.006c0.191 0 0.281 0.183 0.191 0.366v0.090c-0.372 1.921-0.653 3.292-0.653 3.475-0.282 1.372-3.107 2.468-6.497 2.468s-6.216-1.097-6.497-2.468c0-0.183-0.282-1.555-0.659-3.475v-0.090c0-0.274 0.19-0.366 0.377-0.366 0.094 0 0.281 0.092 0.281 0.092s2.353 1.835 6.588 1.835c4.238 0 6.593-1.834 6.593-1.834s0.094-0.093 0.281-0.093zM35.59 21.122v-0.001c1.506 0.551 2.354 1.831 2.354 3.475v1.92c0 2.834-1.976 4.48-5.366 4.48h-7.721c-0.282 0-0.47-0.183-0.47-0.459v-17.917c0-0.275 0.189-0.458 0.47-0.458h7.156c3.577 0 5.272 1.369 5.272 4.111v1.92c0 1.373-0.47 2.287-1.695 2.927zM42.934 17.097h0.010c0.281 0 0.472 0.185 0.472 0.459v12.981c0 0.274-0.191 0.459-0.472 0.459h-2.924c-0.281 0-0.472-0.185-0.472-0.459v-12.98c0-0.276 0.191-0.459 0.472-0.459h2.914zM113.082 16.824c-3.95 0-5.93 1.92-5.93 5.484v3.566c0 3.657 1.98 5.395 6.121 5.395 1.698 0 3.487-0.274 4.994-0.824 0.189-0.090 0.376-0.273 0.281-0.548l-0.47-2.010c0-0.093-0.094-0.275-0.188-0.275-0.095-0.092-0.281-0.092-0.377-0.092-1.154 0.339-2.481 0.539-3.853 0.549l-0.006 0c-2.166 0-2.542-0.64-2.542-2.103v-0.459h7.25c0.281 0 0.472-0.181 0.472-0.456v-2.56c-0.095-3.84-1.884-5.668-5.743-5.668l-0.009 0.001zM61.396 27.978c-0.754 0-1.316 0-1.879-0.093v-7.046c0.847-0.371 1.977-0.732 2.824-0.732 1.13 0 1.602 0.459 1.602 1.464v4.108c0 1.555-0.377 2.286-2.543 2.286l-0.003 0.011zM128.338 28.252l0.002-0.002 0.281 1.918c0.096 0.274-0.093 0.458-0.281 0.546-0.849 0.279-2.165 0.459-2.919 0.459-2.73 0-4.050-1.278-4.050-3.747v-7.31h-1.598c-0.281 0-0.473-0.186-0.473-0.459v-2.101c0-0.276 0.192-0.459 0.473-0.459h1.598v-2.925c0-0.183 0.191-0.456 0.472-0.456l2.918-0.371c0.095 0 0.282 0 0.376 0.092 0.095 0.090 0.191 0.183 0.191 0.37v3.288h2.825c0.281 0 0.469 0.184 0.469 0.458v2.099c0 0.273-0.188 0.458-0.469 0.458h-2.824v6.861c0 0.732 0.281 1.004 1.035 1.004 0.377 0 0.847-0.097 1.412-0.185 0.095 0 0.282 0 0.376 0.097 0.094 0.093 0.184 0.275 0.184 0.366zM53.867 28.252l-0.011-0.002 0.281 1.918c0.096 0.274-0.090 0.458-0.281 0.546-0.844 0.279-2.161 0.459-2.914 0.459-2.731 0-4.047-1.278-4.047-3.747v-7.31h-1.6c-0.282 0-0.472-0.186-0.472-0.459v-2.101c0-0.276 0.191-0.459 0.472-0.459h1.607v-2.925c0-0.183 0.188-0.456 0.469-0.456l2.916-0.371c0.096 0 0.282 0 0.377 0.092 0.094 0.090 0.189 0.183 0.189 0.37v3.288h2.827c0.281 0 0.472 0.184 0.472 0.458v2.099c0 0.273-0.191 0.458-0.472 0.458h-2.824v6.861c0 0.732 0.281 1.004 1.035 1.004 0.376 0 0.939-0.097 1.412-0.185 0.094 0 0.281 0 0.375 0.097 0.095 0.093 0.188 0.275 0.188 0.366zM92.94 28.070h-0.003l0.378 2.103c0 0.273-0.096 0.457-0.377 0.546-0.941 0.276-2.165 0.459-3.201 0.459-4.424 0-6.212-1.555-6.212-5.395v-3.657c0-3.84 1.791-5.396 6.216-5.396 0.753 0 2.071 0.093 3.2 0.459 0.282 0.092 0.378 0.275 0.378 0.548l-0.38 2.194c0 0.183-0.094 0.276-0.188 0.366s-0.281 0.090-0.375 0.090c-1.035-0.181-2.070-0.274-2.542-0.274-1.789 0-2.354 0.457-2.354 2.013v3.747c0 1.555 0.471 2.010 2.354 2.010 0.847 0 1.695-0.092 2.543-0.274 0.094 0 0.281 0 0.375 0.092 0.093 0.090 0.188 0.275 0.188 0.366zM28.35 27.703h3.485c1.508 0 2.071-0.366 2.071-1.555v-1.376c0-1.19-0.469-1.649-1.79-1.649h-1.225c-0.282 0-0.473-0.185-0.473-0.459v-2.273c0-0.275 0.191-0.458 0.472-0.458h0.66c1.225 0 1.694-0.457 1.694-1.554v-1.647c0-0.64-0.182-1.28-1.688-1.28h-3.214v12.25h0.009zM81.262 17.097h-0.003c0.284 0 0.47 0.274 0.565 0.459v12.988c0 0.274-0.189 0.459-0.47 0.459h-2.168c-0.185 0-0.375-0.183-0.472-0.366l-0.188-0.733c-1.789 0.823-3.954 1.373-5.461 1.373-2.26 0-3.388-1.464-3.388-4.206v-9.507c0-0.274 0.19-0.459 0.47-0.459h2.924c0.281 0 0.472 0.185 0.472 0.459v9.134c0 0.641 0.285 0.915 0.945 0.915 0.844 0 2.351-0.548 3.388-1.097v-8.958c0-0.276 0.191-0.459 0.472-0.459h2.914zM9.607 10.516c-5.274 0-9.607 1.368-9.607 3.107 0 0.458 1.13 6.947 1.6 9.508 0.189 1.187 3.297 2.834 8.003 2.834 4.707 0 7.721-1.64 8.003-2.829 0.462-2.558 1.598-9.047 1.598-9.505-0.1-1.737-4.331-3.107-9.608-3.107l0.010-0.007zM9.607 23.862c-1.694 0-3.012-1.28-3.012-2.925 0-1.65 1.318-2.927 3.012-2.927 1.694 0 3.012 1.278 3.012 2.927 0 1.551-1.319 2.918-3.012 2.918v0.008zM106.584 30.172l-0.004-0.002c0.093 0.092 0.093 0.183 0 0.365 0 0.275-0.191 0.458-0.472 0.458h-3.2c-0.096 0-0.282-0.090-0.377-0.276l-3.763-6.216v5.942c0 0.274-0.191 0.459-0.472 0.459h-2.919c-0.281 0-0.471-0.185-0.471-0.459v-18.189c0-0.276 0.191-0.459 0.472-0.459h2.919c0.281 0 0.472 0.183 0.472 0.459v11.162l3.58-6.042c0.091-0.162 0.264-0.271 0.462-0.271 0.003 0 0.006 0 0.009 0h3.202c0.003-0 0.006-0 0.009-0 0.199 0 0.372 0.109 0.464 0.274 0.093 0.095 0.093 0.273 0 0.458l-3.769 6.119 3.861 6.217zM111.011 22.402v-0.459c0-1.366 0.658-1.912 2.070-1.912 1.601 0 1.884 0.732 1.884 1.922v0.459h-3.954v-0.010zM9.608 19.388c-0.832 0-1.507 0.661-1.507 1.463 0 0.81 0.678 1.464 1.507 1.464s1.507-0.654 1.507-1.464c0-0.801-0.678-1.463-1.507-1.463zM63.368 16.831c-1.411 0-2.918 0.369-3.859 0.732v-5.212c0-0.273-0.188-0.458-0.472-0.458h-2.919c-0.281 0-0.472 0.185-0.472 0.458v18.102c0 0.274 0.191 0.459 0.377 0.459 1.789 0.274 3.955 0.459 5.178 0.459 5.462 0 6.591-2.286 6.591-5.671v-3.933c0-3.288-1.507-4.937-4.425-4.937zM40.019 15.181l2.92-0.002c0.282 0 0.472-0.185 0.472-0.458v-2.467c0-0.183-0.19-0.459-0.472-0.459h-2.92c-0.281 0-0.472 0.183-0.472 0.459v2.468c0 0.276 0.191 0.459 0.472 0.459zM9.606 14.537c-3.391 0-6.12-0.546-6.12-1.278s2.729-1.28 6.12-1.28c3.389 0 6.121 0.548 6.121 1.278 0 0.732-2.732 1.281-6.121 1.281zM47.36 7.316l-0.001 0.011h0.036c1.568-0.010 1.94-0.648 1.94-1.647 0-1.096-0.186-1.37-1.599-1.738-0.659-0.181-0.659-0.181-0.659-0.552 0-0.274 0-0.364 0.565-0.364 0.164 0 0.365 0.019 0.572 0.039l0.177 0.018-0.029-0.003c0.196 0.022 0.395 0.035 0.603 0.039h0.189l0.094-0.093 0.093-0.819c0-0.092-0.090-0.183-0.090-0.183-0.378-0.093-1.038-0.181-1.507-0.181-1.696 0-1.98 0.638-1.98 1.551 0 1.005 0.191 1.366 1.507 1.64 0.85 0.185 0.85 0.37 0.85 0.546 0 0.282 0 0.458-0.573 0.458-0.471 0-0.939-0.087-1.412-0.185h-0.188l-0.090 0.092-0.188 0.732c0 0.092 0 0.181 0.092 0.181 0.375 0.276 1.13 0.459 1.6 0.459zM43.214 7.317v0.011h0.036c1.568-0.010 1.94-0.649 1.94-1.65-0.094-1.095-0.282-1.369-1.694-1.737-0.662-0.182-0.662-0.182-0.662-0.551 0-0.273 0-0.361 0.572-0.361l0.006 0c0.201 0.003 0.4 0.016 0.568 0.035l0.177 0.017c0.206 0.020 0.406 0.039 0.57 0.039h0.1l0.093-0.090 0.093-0.823c0-0.092-0.095-0.183-0.188-0.183-0.377-0.093-1.037-0.181-1.507-0.181-1.696 0-1.98 0.638-1.98 1.551 0 1.005 0.191 1.366 1.507 1.64 0.846 0.185 0.846 0.37 0.846 0.546 0 0.282 0 0.458-0.563 0.458-0.471 0-0.942-0.087-1.411-0.185h-0.191l-0.102 0.092-0.188 0.732c0 0.092 0 0.181 0.094 0.181 0.66 0.276 1.32 0.459 1.882 0.459zM60.258 1.921v-0.006c0.844 0 1.216 0.459 1.316 1.556v3.571c0 0.090-0.1 0.182-0.192 0.182h-1.126c-0.094 0-0.188-0.093-0.188-0.181v-3.388c0-0.274-0.095-0.364-0.376-0.364-0.377 0-0.941 0.182-1.319 0.365v3.385c0 0.090-0.094 0.182-0.188 0.182h-1.13c-0.095 0-0.189-0.092-0.189-0.182v-4.846c0-0.090 0.094-0.183 0.189-0.183h0.847c0.094 0 0.188 0 0.188 0.092l0.095 0.276c0.753-0.275 1.506-0.459 2.072-0.459zM51.219 2.013l0.007-0.002c0.098 0 0.191 0.092 0.191 0.182v4.85c0 0.090-0.092 0.182-0.191 0.182h-1.137c-0.094 0-0.188-0.092-0.188-0.182v-4.846c0-0.090 0.094-0.183 0.188-0.183h1.13zM35.777 0.003l-0.003-0.003c0.093 0 0.188 0.092 0.188 0.182v6.86c0 0.090-0.095 0.182-0.184 0.182h-1.137c-0.090 0-0.18-0.092-0.18-0.182v-6.858c0-0.090 0.094-0.181 0.188-0.181h1.129zM28.623 0.276c0-0.092-0.094-0.092-0.188-0.092h-1.695c-0.095 0-0.189 0.092-0.189 0.092l-2.173 6.676v0.181c0 0.092 0.090 0.092 0.184 0.092h1.226c0.093 0 0.186-0.092 0.186-0.092l1.507-4.938s0-0.089 0.188-0.089c0.093 0 0.188 0.090 0.188 0.090l0.66 2.286h-0.942c-0.097 0-0.192 0.090-0.192 0.090l-0.281 0.908v0.179s0.094 0.092 0.188 0.092h1.599l0.377 1.28c0 0.090 0.095 0.090 0.19 0.090h1.225c0.095 0 0.095 0 0.192-0.093v-0.185l-2.251-6.568zM38.322 6.127v0.001h-0.008c-0.371-0.003-0.463-0.095-0.463-0.459 0-0.274 0.094-0.457 0.471-0.457h0.941v0.733c-0.188 0.090-0.469 0.182-0.941 0.182zM33.801 6.127l0.011 0.004 0.094 0.824c0 0.090 0 0.090-0.375 0.273-0.284 0.093-0.754 0.185-1.035 0.185-1.037 0-1.507-0.457-1.507-1.37v-2.742h-0.566c-0.095 0-0.191-0.093-0.191-0.185v-0.825c0-0.089 0.090-0.185 0.181-0.185h0.565v-1.092c0-0.088 0.093-0.185 0.188-0.185l1.131-0.185c0.094-0.088 0.189 0 0.189 0 0.094 0 0.094 0 0.094 0.090v1.28h1.035c0.095 0 0.188 0.093 0.188 0.183v0.732c0 0.092-0.093 0.182-0.188 0.182h-1.035v2.652c0 0.275 0.095 0.366 0.376 0.366 0.188 0 0.377 0 0.565-0.092h0.189c0.094 0 0.094 0 0.094 0.092zM53.856 6.127v0.001h-0.008c-0.37-0.003-0.462-0.095-0.462-0.459 0-0.274 0.095-0.457 0.47-0.457h0.942v0.733c-0.189 0.090-0.47 0.182-0.942 0.182zM38.602 1.92c-0.607 0.012-1.19 0.079-1.756 0.195l0.062-0.011c-0.095 0-0.188 0.090-0.095 0.182l0.1 0.732c0 0.090 0 0.090 0.099 0.090h0.093c0.472-0.090 0.942-0.090 1.318-0.090 0.754 0 0.942 0.183 0.942 0.64v0.458h-1.137c-1.13 0-1.6 0.456-1.6 1.462 0 1.004 0.565 1.554 1.412 1.554 0.563 0 1.035-0.183 1.505-0.365v0.182c0 0.093 0.094 0.093 0.188 0.093h0.849c0.090 0 0.191-0.098 0.191-0.185v-3.112c0-1.372-0.563-1.83-2.163-1.83l-0.009 0.006zM54.045 1.92c-0.565 0-1.225 0.092-1.696 0.184-0.1 0-0.191 0.090-0.1 0.182l0.090 0.732c0 0.090 0 0.090 0.094 0.090h0.094c0.472-0.090 0.942-0.090 1.316-0.090 0.754 0 0.945 0.183 0.945 0.64v0.458h-1.121c-1.129 0-1.6 0.456-1.6 1.462 0 1.004 0.565 1.554 1.412 1.554 0.565 0 1.036-0.183 1.508-0.365l0.093 0.182c0 0.093 0.094 0.093 0.188 0.093h0.849c0.094 0 0.188-0.098 0.188-0.185v-3.112c-0.094-1.372-0.659-1.83-2.259-1.83v0.006zM51.22 0h-1.131c-0.094 0-0.188 0.093-0.188 0.183v0.915c0 0.088 0.094 0.175 0.188 0.175h1.137c0.099 0 0.191-0.094 0.191-0.185v-0.906c0-0.090-0.093-0.182-0.191-0.182l-0.006 0.002z">
         </path>
      </symbol>
      <symbol id="icon-chat" viewBox="0 0 35 32">
         <path fill="none" stroke="#4074f8" style="stroke: var(--color4, #4074f8)" stroke-linejoin="miter"
            stroke-linecap="butt" stroke-miterlimit="4" stroke-width="4"
            d="M3.2 3.2v18.4h3.65l1.95 5.6 5.6-5.6h17.206v-18.4h-28.406z"></path>
      </symbol>
      <symbol id="icon-facebook" viewBox="0 0 17 32">
         <path
            d="M10.647 32v-14.598h4.836l0.725-5.688h-5.56v-3.631c0-1.647 0.452-2.769 2.782-2.769h2.974v-5.092c-0.516-0.068-2.28-0.222-4.333-0.222-4.286 0-7.221 2.65-7.221 7.52v4.194h-4.849v5.688h4.849v14.598h5.798z">
         </path>
      </symbol>
      <symbol id="icon-facebook-partner" viewBox="0 0 163 32">
         <path
            d="M160.44 27.932c1.106 0 1.987 0.874 1.987 1.969 0 1.107-0.881 1.97-1.997 1.97-1.105 0-2.002-0.863-2.002-1.97 0-1.095 0.897-1.969 2.002-1.969h0.010zM32.523 31.606h-5.473l-0.234-1.341c-1.776 0.983-3.895 1.561-6.148 1.561-0.019 0-0.037-0-0.056-0h0.003c-4.017 0-6.154-2.599-6.154-6.197 0-4.243 2.493-5.759 6.954-5.759h4.536v-0.915c0-2.165-0.252-2.801-3.699-2.801h-5.597l0.55-5.315h6.14c7.533 0 9.185 2.314 9.185 8.16v12.607h-0.006zM114.077 23.272c0 4.331-1.842 8.531-9.554 8.531-7.72 0-9.597-4.202-9.597-8.531v-4.184c0-4.331 1.875-8.531 9.594-8.531 7.73 0 9.581 4.2 9.581 8.534v4.182l-0.024-0.001zM135.107 23.272c0 4.331-1.845 8.531-9.554 8.531-7.722 0-9.6-4.202-9.6-8.531v-4.184c0-4.331 1.875-8.531 9.597-8.531 7.705 0 9.554 4.2 9.554 8.534v4.182l0.003-0.001zM160.43 28.242c-0.886 0-1.622 0.739-1.622 1.656 0 0.936 0.736 1.67 1.632 1.67 0.9 0.025 1.622-0.714 1.622-1.649 0-0.911-0.722-1.654-1.622-1.654h-0.010v-0.021zM10.080 31.565h-6.564v-15.405h-3.285v-5.315h3.282v-3.187c0-4.331 1.85-6.911 7.117-6.911h4.384v5.315h-2.737c-2.054 0-2.19 0.74-2.19 2.129l-0.025 2.657h4.967l-0.583 5.315h-4.383v15.405l0.017-0.003zM160.053 31.048h-0.36v-2.198c0.203-0.024 0.38-0.049 0.659-0.049 0.346 0 0.572 0.067 0.71 0.163 0.136 0.097 0.202 0.245 0.202 0.455 0 0.288-0.192 0.462-0.43 0.534v0.017c0.192 0.035 0.328 0.207 0.38 0.531 0.050 0.339 0.102 0.473 0.136 0.543h-0.38c-0.050-0.070-0.109-0.271-0.152-0.557-0.051-0.284-0.203-0.387-0.487-0.387h-0.253v0.945l-0.025 0.003zM160.053 29.83h0.26c0.296 0 0.548-0.106 0.548-0.376 0-0.192-0.142-0.384-0.548-0.384-0.117 0-0.202 0.007-0.26 0.017v0.743zM21.028 25.549c0 1.162 0.568 1.764 1.814 1.764 1.343 0 2.134-0.423 3.112-0.863v-2.323h-2.93c-1.389 0-1.997 0.245-1.997 1.419v0.003zM83.731 15.861c-1.343 0-2.307 0.417-3.283 0.861v9.795c0.936 0.085 1.475 0.085 2.365 0.085 3.219 0 3.655-1.426 3.655-3.42v-4.686c0-1.466-0.506-2.65-2.737-2.65v0.014zM104.501 15.861c-2.236 0-3.009 1.181-3.009 2.634v5.363c0 1.476 0.774 2.657 3.009 2.657 2.23 0 3.005-1.181 3.005-2.657v-5.365c0-1.466-0.786-2.649-3.016-2.649l0.011 0.017zM51.135 16.526c-3.406-0.566-4.383-0.69-6.022-0.69-2.944 0-3.833 0.623-3.833 3.053v4.577c0 2.422 0.886 3.050 3.833 3.050 1.64 0 2.616-0.122 6.022-0.689v5.178c-2.983 0.651-4.925 0.821-6.568 0.821-7.050 0-9.853-3.592-9.853-8.785v-3.715c0-5.203 2.803-8.803 9.853-8.803 1.642 0 3.587 0.171 6.568 0.824v5.178zM71.688 23.047h-12.043v0.417c0 2.424 0.888 3.053 3.832 3.053 2.649 0 4.257-0.124 7.659-0.69v5.178c-3.277 0.651-4.985 0.821-8.203 0.821-7.046 0-9.834-3.592-9.834-8.785v-4.257c0-4.545 2.079-8.269 9.301-8.269 7.235 0 9.301 3.679 9.301 8.269v4.257l-0.013 0.006zM125.528 15.861c-2.23 0-3.004 1.181-3.004 2.641v5.37c0 1.478 0.774 2.659 3.004 2.659s3.016-1.181 3.016-2.657v-5.375c0-1.469-0.786-2.653-3.016-2.653v0.014zM156.691 31.56h-7.114l-6.022-9.745v9.745h-6.564v-29.226l6.564-1.057v18.813l6.019-9.252h7.097l-6.577 10.088 6.571 10.63 0.025 0.006zM62.382 15.321c-2.23 0-2.737 1.181-2.737 2.657v0.819h5.475v-0.826c0-1.453-0.508-2.643-2.738-2.643v-0.007zM93.038 23.146c0 5.021-1.496 8.687-10.467 8.687-3.235 0-5.134-0.281-8.708-0.813v-28.69l6.564-1.057v10.031c1.419-0.512 3.256-0.769 4.929-0.769 6.563 0 7.652 2.854 7.652 7.438v5.194l0.028-0.021z">
         </path>
      </symbol>
      <symbol id="icon-files" viewBox="0 0 50 32">
         <path fill="none" stroke="#4074f8" style="stroke: var(--color4, #4074f8)" stroke-linejoin="miter"
            stroke-linecap="butt" stroke-miterlimit="4" stroke-width="4.4444"
            d="M35.118 28.444h-31.563v-24.889h17.934l2.869 5.62h10.759v3.212M35.118 28.444l9.326-16.057h-9.326M35.118 28.444v-16.057">
         </path>
      </symbol>
      <symbol id="icon-logo" viewBox="0 0 32 32">
         <path fill="#5e81fe" style="fill: var(--color6, #5e81fe)"
            d="M32 16c0 8.837-7.163 16-16 16s-16-7.163-16-16c0-8.837 7.163-16 16-16s16 7.163 16 16z"></path>
      </symbol>
      <symbol id="icon-magnifying-glass" viewBox="0 0 33 32">
         <path fill="#fff" style="fill: var(--color7, #fff)"
            d="M32.085 16c0 8.829-7.166 15.987-16.006 15.987s-16.006-7.157-16.006-15.987c0-8.829 7.166-15.987 16.006-15.987s16.006 7.157 16.006 15.987z">
         </path>
         <path fill="none" stroke="#a7aac6" style="stroke: var(--color8, #a7aac6)" stroke-linejoin="miter"
            stroke-linecap="butt" stroke-miterlimit="4" stroke-width="0.9846"
            d="M18.271 15.268c-0.001 1.613-1.309 2.921-2.923 2.921-0.001 0-0.002 0-0.003 0h0c-0.001 0-0.001 0-0.002 0-1.614 0-2.922-1.307-2.923-2.921v-0c0.001-1.613 1.309-2.921 2.923-2.921 0.001 0 0.001 0 0.002 0h-0c0.001 0 0.002 0 0.002 0 1.614 0 2.922 1.307 2.923 2.921v0z">
         </path>
         <path fill="none" stroke="#a7aac6" style="stroke: var(--color8, #a7aac6)" stroke-linejoin="round"
            stroke-linecap="round" stroke-miterlimit="4" stroke-width="0.9846" d="M17.787 17.707l2.441 2.438"></path>
      </symbol>
      <symbol id="icon-medium" viewBox="0 0 39 32">
         <path
            d="M38.857 4.816h-1.493c-0.553 0-1.337 0.786-1.337 1.289v18.256c0 0.503 0.784 1.193 1.337 1.193h1.493v4.334h-13.522v-4.334h2.83v-19.191h-0.137l-6.61 23.522h-5.118l-6.523-23.522h-0.165v19.191h2.83v4.334h-11.321v-4.334h1.449c0.597 0 1.381-0.688 1.381-1.193v-18.256c0-0.503-0.784-1.289-1.381-1.289h-1.449v-4.336h14.158l4.647 17.024h0.128l4.69-17.024h14.114v4.334z">
         </path>
      </symbol>
      <symbol id="icon-overview" viewBox="0 0 27 32">
         <path fill="none" stroke="#4074f8" style="stroke: var(--color4, #4074f8)" stroke-linejoin="miter"
            stroke-linecap="butt" stroke-miterlimit="4" stroke-width="3.8095"
            d="M3.048 11.997v16.955h6.737l3.93-3.048 3.93 3.048h6.737v-16.955l-10.667-8.949-10.667 8.949z"></path>
      </symbol>
      <symbol id="icon-productivity" viewBox="0 0 32 32">
         <path fill="none" stroke="#fff" style="stroke: var(--color7, #fff)" stroke-linejoin="round"
            stroke-linecap="round" stroke-miterlimit="4" stroke-width="1.8824"
            d="M0.941 15.824c0-8.219 6.702-14.882 14.969-14.882 1.523 0 2.994 0.226 4.379 0.647"></path>
         <path fill="#fff" style="fill: var(--color7, #fff)"
            d="M12.688 19.026c1.779 1.769 4.664 1.769 6.442 0s9.144-14.202 8.494-14.849-13.157 6.675-14.936 8.444c-0.824 0.818-1.334 1.951-1.334 3.203s0.51 2.385 1.334 3.203l0 0zM15.91 17.118c0.001 0 0.002 0 0.004 0 0.715 0 1.296-0.579 1.298-1.294v-0c-0.002-0.715-0.582-1.294-1.298-1.294-0.001 0-0.003 0-0.004 0h0c-0.001 0-0.002 0-0.004 0-0.715 0-1.296 0.579-1.298 1.294v0c0.002 0.715 0.582 1.294 1.298 1.294 0.001 0 0.003 0 0.004 0h-0z">
         </path>
         <path fill="#fff" style="fill: var(--color7, #fff)"
            d="M4.195 23.588c0 0.715-0.583 1.294-1.302 1.294s-1.302-0.579-1.302-1.294c0-0.715 0.583-1.294 1.302-1.294s1.302 0.579 1.302 1.294z">
         </path>
         <path fill="#fff" style="fill: var(--color7, #fff)"
            d="M9.402 28.765c0 0.715-0.583 1.294-1.302 1.294s-1.302-0.579-1.302-1.294c0-0.715 0.583-1.294 1.302-1.294s1.302 0.579 1.302 1.294z">
         </path>
         <path fill="#fff" style="fill: var(--color7, #fff)"
            d="M17.211 30.706c0 0.715-0.583 1.294-1.302 1.294s-1.302-0.579-1.302-1.294c0-0.715 0.583-1.294 1.302-1.294s1.302 0.579 1.302 1.294z">
         </path>
         <path fill="#fff" style="fill: var(--color7, #fff)"
            d="M25.021 28.765c0 0.715-0.583 1.294-1.302 1.294s-1.302-0.579-1.302-1.294c0-0.715 0.583-1.294 1.302-1.294s1.302 0.579 1.302 1.294z">
         </path>
         <path fill="#fff" style="fill: var(--color7, #fff)"
            d="M29.577 23.588c0 0.715-0.583 1.294-1.302 1.294s-1.302-0.579-1.302-1.294c0-0.715 0.583-1.294 1.302-1.294s1.302 0.579 1.302 1.294z">
         </path>
         <path fill="#fff" style="fill: var(--color7, #fff)"
            d="M31.529 15.824c0 0.715-0.583 1.294-1.302 1.294s-1.302-0.579-1.302-1.294c0-0.715 0.583-1.294 1.302-1.294s1.302 0.579 1.302 1.294z">
         </path>
      </symbol>
      <symbol id="icon-save-events" viewBox="0 0 35 32">
         <path fill="none" stroke="#4074f8" style="stroke: var(--color4, #4074f8)" stroke-linejoin="miter"
            stroke-linecap="butt" stroke-miterlimit="4" stroke-width="4.2105"
            d="M3.368 20.157v9.317h29.059v-9.317M11.375 8.421l6.737-5.053M24.849 8.421l-6.737-5.053M18.112 3.368v17.684">
         </path>
      </symbol>
      <symbol id="icon-select-arrow-down" viewBox="0 0 52 32">
         <path fill="none" stroke="#8e96b7" style="stroke: var(--color10, #8e96b7)" stroke-linejoin="round"
            stroke-linecap="round" stroke-miterlimit="4" stroke-width="8.7273"
            d="M5.818 5.818l20.364 20.364 20.364-20.364"></path>
      </symbol>
      <symbol id="icon-select-arrow-up" viewBox="0 0 52 32">
         <path fill="none" stroke="#495274" style="stroke: var(--color11, #495274)" stroke-linejoin="round"
            stroke-linecap="round" stroke-miterlimit="4" stroke-width="8.7273"
            d="M46.545 26.182l-20.364-20.364-20.364 20.364"></path>
      </symbol>
      <symbol id="icon-telegram" viewBox="0 0 37 32">
         <path d="M14.326 29.595c-1.078 0-0.896-0.389-1.268-1.371l-3.168-9.977 24.394-13.841z"></path>
         <path d="M14.326 29.595c0.832 0 1.199-0.364 1.664-0.795l4.433-4.126-5.531-3.19z"></path>
         <path
            d="M14.892 21.484l13.406 9.474c1.529 0.807 2.634 0.389 3.013-1.359l5.457-24.598c0.559-2.142-0.852-3.114-2.316-2.479l-32.044 11.82c-2.186 0.837-2.174 2.006-0.399 2.526l8.224 2.454 19.038-11.488c0.898-0.519 1.723-0.241 1.046 0.335z">
         </path>
      </symbol>
      <symbol id="icon-twitter" viewBox="0 0 41 32">
         <path
            d="M38.933 4.206c-1.294 0.606-2.794 1.047-4.371 1.247l-0.075 0.008c1.609-1.009 2.814-2.537 3.388-4.346l0.015-0.056c-1.413 0.878-3.060 1.547-4.818 1.914l-0.099 0.017c-1.401-1.542-3.414-2.506-5.652-2.507h-0c-4.274 0-7.742 3.561-7.742 7.954 0 0.622 0.069 1.23 0.201 1.81-6.434-0.331-12.142-3.499-15.959-8.311-0.658 1.144-1.047 2.516-1.047 3.978 0 0.008 0 0.015 0 0.023v-0.001c0 2.759 1.365 5.193 3.442 6.619-1.296-0.045-2.499-0.409-3.542-1.016l0.036 0.019v0.101c0 3.856 2.672 7.067 6.21 7.799-0.61 0.177-1.31 0.279-2.034 0.279-0.516 0-1.020-0.052-1.507-0.151l0.048 0.008c0.983 3.161 3.845 5.461 7.232 5.525-2.602 2.12-5.959 3.404-9.615 3.404-0.651 0-1.293-0.041-1.923-0.12l0.075 0.008c3.338 2.24 7.447 3.575 11.867 3.575h0c14.24 0 22.027-12.119 22.027-22.629 0-0.345-0.007-0.688-0.023-1.029 1.524-1.142 2.807-2.507 3.826-4.061l0.037-0.061z">
         </path>
      </symbol>
      <symbol id="icon-users" viewBox="0 0 36 32">
         <path fill="none" stroke="#5e80ff" style="stroke: var(--color15, #5e80ff)" stroke-linejoin="round"
            stroke-linecap="round" stroke-miterlimit="4" stroke-width="1.9394"
            d="M21.46 8.485c0 4.151-3.394 7.515-7.582 7.515s-7.582-3.365-7.582-7.515c0-4.151 3.394-7.515 7.582-7.515s7.582 3.365 7.582 7.515z">
         </path>
         <path fill="none" stroke="#5e80ff" style="stroke: var(--color15, #5e80ff)" stroke-linejoin="round"
            stroke-linecap="round" stroke-miterlimit="4" stroke-width="1.9394"
            d="M26.788 31.030c0-6.955-5.779-12.593-12.909-12.593s-12.909 5.638-12.909 12.593"></path>
         <path fill="none" stroke="#5e80ff" style="stroke: var(--color15, #5e80ff)" stroke-linejoin="round"
            stroke-linecap="round" stroke-miterlimit="4" stroke-width="1.4545"
            d="M33.195 9.805c0 1.739-1.401 3.148-3.129 3.148s-3.129-1.409-3.129-3.148c0-1.739 1.401-3.148 3.129-3.148s3.129 1.409 3.129 3.148z">
         </path>
         <path fill="none" stroke="#5e80ff" style="stroke: var(--color15, #5e80ff)" stroke-linejoin="round"
            stroke-linecap="round" stroke-miterlimit="4" stroke-width="1.4545"
            d="M35.394 19.25c0-2.914-2.385-5.275-5.328-5.275s-5.328 2.361-5.328 5.275"></path>
      </symbol>
      <symbol id="icon-google" viewBox="0 0 32 32">
         <path
            d="M16.319 13.713v5.487h9.075c-0.369 2.356-2.744 6.9-9.075 6.9-5.463 0-9.919-4.525-9.919-10.1s4.456-10.1 9.919-10.1c3.106 0 5.188 1.325 6.375 2.469l4.344-4.181c-2.788-2.612-6.4-4.188-10.719-4.188-8.844 0-16 7.156-16 16s7.156 16 16 16c9.231 0 15.363-6.494 15.363-15.631 0-1.050-0.113-1.85-0.25-2.65l-15.113-0.006z">
         </path>
      </symbol>
      <symbol id="icon-facebook2" viewBox="0 0 32 32">
         <path
            d="M29 0h-26c-1.65 0-3 1.35-3 3v26c0 1.65 1.35 3 3 3h13v-14h-4v-4h4v-2c0-3.306 2.694-6 6-6h4v4h-4c-1.1 0-2 0.9-2 2v2h6l-1 4h-5v14h9c1.65 0 3-1.35 3-3v-26c0-1.65-1.35-3-3-3z">
         </path>
      </symbol>
      <symbol id="icon-twitter1" viewBox="0 0 32 32">
         <path
            d="M32 7.075c-1.175 0.525-2.444 0.875-3.769 1.031 1.356-0.813 2.394-2.1 2.887-3.631-1.269 0.75-2.675 1.3-4.169 1.594-1.2-1.275-2.906-2.069-4.794-2.069-3.625 0-6.563 2.938-6.563 6.563 0 0.512 0.056 1.012 0.169 1.494-5.456-0.275-10.294-2.888-13.531-6.862-0.563 0.969-0.887 2.1-0.887 3.3 0 2.275 1.156 4.287 2.919 5.463-1.075-0.031-2.087-0.331-2.975-0.819 0 0.025 0 0.056 0 0.081 0 3.181 2.263 5.838 5.269 6.437-0.55 0.15-1.131 0.231-1.731 0.231-0.425 0-0.831-0.044-1.237-0.119 0.838 2.606 3.263 4.506 6.131 4.563-2.25 1.762-5.075 2.813-8.156 2.813-0.531 0-1.050-0.031-1.569-0.094 2.913 1.869 6.362 2.95 10.069 2.95 12.075 0 18.681-10.006 18.681-18.681 0-0.287-0.006-0.569-0.019-0.85 1.281-0.919 2.394-2.075 3.275-3.394z">
         </path>
      </symbol>
   </defs>
</svg>